<?xml version="1.0" encoding="UTF-8"?>
<svg xmlns="http://www.w3.org/2000/svg" viewBox="0 0 100 100">
  <defs>
    <style>
      .c,.d,.e,.f{stroke:#000;stroke-miterlimit:10;}
      .c,.d,.f{stroke-width:3px;}.c,.e{fill:none;}
      .g{fill:#e56565;}.h{fill:#ffcb57;}.i{fill:#3f3a34;}
      .e{stroke-width:4px;}.j{opacity:.7;}.f{fill:#fff;}
    </style>
  </defs>
  <g id="a">
    <g class="j">
      <circle class="f" cx="50" cy="50" r="48.5"/>
      <line class="c" x1="46.5" y1="10.5" x2="39.5" y2="28.5"/>
      <line class="c" x1="8.5" y1="29.5" x2="21.5" y2="38.5"/>
      <line class="c" x1="23.5" y1="58.5" x2="13.5" y2="73.5"/>
      <line class="c" x1="42.5" y1="62.5" x2="54.5" y2="81.5"/>
      <line class="c" x1="85.5" y1="58.5" x2="73.5" y2="80.5"/>
      <line class="c" x1="52.5" y1="43.5" x2="76.5" y2="42.5"/>
      <line class="c" x1="66.5" y1="9.5" x2="81.5" y2="27.5"/>
      <line class="c" x1="22.5" y1="88.5" x2="47.5" y2="92.5"/>
      <polyline class="d" points="22.5 59.5 21.5 38.5 39.5 28.5 52.5 43.5 42.5 62.5 23.5 59.5"/>
      <line class="c" x1="4.5" y1="66.5" x2="13.5" y2="73.5"/>
      <line class="c" x1="22.5" y1="88.5" x2="13.5" y2="73.5"/>
      <line class="c" x1="3.5" y1="36.5" x2="8.5" y2="29.5"/>
      <line class="c" x1="12.5" y1="19.5" x2="8.5" y2="29.5"/>
      <polyline class="d" points="36.5 3.5 46.5 10.5 66.5 9.5 68.5 5.5"/>
      <polygon class="d" points="81.5 27.5 76.5 42.5 85.5 58.5 97.5 51.5 94.5 33.5 81.5 27.5"/>
      <line class="c" x1="36.5" y1="3.5" x2="68.5" y2="5.5"/>
      <line class="e" x1="6" y1="69" x2="22" y2="89"/>
      <polyline class="d" points="54.5 96.5 76.5 89.5 73.5 80.5 54.5 81.5 47.5 92.5 56.5 97.5"/>
    </g>
  </g>
  <g id="b">
    <g>
      <path class="h" d="M43,20c-2.81,0-5.23,1.66-6.34,4.05-.22-.02-.44-.05-.66-.05-3.87,0-7,3.13-7,7v.42c-1.57,.69-2.69,2.15-2.93,3.91l-.07-.04c-2.89,.86-5,3.54-5,6.71,0,1.35,.39,2.6,1.05,3.67-1.27,1.42-2.05,3.28-2.05,5.33,0,2.34,1.01,4.45,2.62,5.91-.4,.95-.62,1.99-.62,3.09,0,4.08,3.05,7.45,7,7.94h0v.06h.38c.71,2.02,2.46,3.55,4.62,3.92v-.18c.01,.09,0,.18,0,.27,0,4.42,3.58,8,8,8s8-3.58,8-8V27c0-3.87-3.13-7-7-7Zm-14,35.96v.04s0,0,0-.04Z"/>
      <path class="g" d="M57,46h-4v-2h4c.55,0,1-.45,1-1v-7h2v7c0,1.65-1.35,3-3,3Z"/>
      <path class="g" d="M59,34c-1.65,0-3-1.35-3-3s1.35-3,3-3,3,1.35,3,3-1.35,3-3,3Zm0-4c-.55,0-1,.45-1,1s.45,1,1,1,1-.45,1-1-.45-1-1-1Z"/>
      <path class="g" d="M60,64h-2v-7c0-.55-.45-1-1-1h-4v-2h4c1.65,0,3,1.35,3,3v7Z"/>
      <path class="g" d="M59,72c-1.65,0-3-1.35-3-3s1.35-3,3-3,3,1.35,3,3-1.35,3-3,3Zm0-4c-.55,0-1,.45-1,1s.45,1,1,1,1-.45,1-1-.45-1-1-1Z"/>
      <path class="g" d="M63,51h-10v-2h10c1.65,0,3-1.35,3-3v-3h2v3c0,2.76-2.24,5-5,5Z"/>
      <path class="g" d="M67,41c-1.65,0-3-1.35-3-3s1.35-3,3-3,3,1.35,3,3-1.35,3-3,3Zm0-4c-.55,0-1,.45-1,1s.45,1,1,1,1-.45,1-1-.45-1-1-1Z"/>
      <rect class="g" x="66" y="54" width="2" height="10"/>
      <rect class="g" x="71" y="40" width="2" height="16"/>
      <rect class="g" x="71" y="58" width="2" height="2"/>
      <g>
        <path class="i" d="M54.78,19.37c-1.45-.22-2.92,.19-4.03,1.15-.57,.49-1.01,1.09-1.31,1.76-1.46-1.98-3.8-3.27-6.44-3.27-2.96,0-5.54,1.62-6.92,4.01-.03,0-.05,0-.08,0-4.35,0-7.89,3.48-7.99,7.81-1.39,.8-2.42,2.14-2.82,3.73-3.07,1.16-5.19,4.14-5.19,7.46,0,1.24,.29,2.45,.84,3.56-1.19,1.56-1.84,3.47-1.84,5.44,0,2.31,.89,4.51,2.46,6.17-.3,.89-.46,1.84-.46,2.83,0,4.44,3.26,8.21,7.62,8.89,.82,1.83,2.42,3.25,4.41,3.83,.37,4.63,4.24,8.28,8.96,8.28,2.98,0,5.63-1.47,7.26-3.71,.28,.84,.79,1.6,1.48,2.19,.92,.78,2.07,1.21,3.26,1.21,.26,0,.51-.02,.77-.06,15.19-2.35,26.22-15.24,26.22-30.63s-11.03-28.28-26.22-30.63Zm-12.78,59.63c-3.86,0-7-3.14-7-7s3.14-7,7-7v-2c-4.49,0-8.22,3.31-8.88,7.62-1.85-.75-3.12-2.54-3.12-4.62,0-2.76,2.24-5,5-5v-2c-3.86,0-7,3.14-7,7,0,.24,.02,.48,.04,.72-2.94-.85-5.04-3.57-5.04-6.72,0-3.86,3.14-7,7-7v-2c-3.2,0-6,1.68-7.6,4.2-.9-1.2-1.4-2.67-1.4-4.2,0-1.72,.64-3.37,1.79-4.66l.5-.56-.39-.64c-.59-.95-.9-2.04-.9-3.14,0-2.18,1.22-4.16,3.06-5.21,.39,2.93,2.9,5.21,5.94,5.21v-2c-2.21,0-4-1.79-4-4s1.79-4,4-4,4,1.79,4,4h2c0-3.31-2.69-6-6-6-.31,0-.62,.03-.92,.08,.41-2.63,2.52-4.69,5.17-5.03-.16,.62-.25,1.27-.25,1.95,0,4.41,3.59,8,8,8v-2c-3.31,0-6-2.69-6-6s2.69-6,6-6,6,2.69,6,6v45c0,3.86-3.14,7-7,7Zm12.47-.34c-.87,.14-1.76-.12-2.43-.69-.67-.57-1.05-1.4-1.05-2.28V24.31c0-.88,.38-1.71,1.05-2.28,.55-.47,1.25-.73,1.96-.73,.15,0,.31,.01,.46,.04,13.98,2.16,24.52,14.48,24.52,28.66s-10.54,26.49-24.53,28.66Z"/>
        <rect class="i" x="43" y="26" width="2" height="2"/>
        <rect class="i" x="38" y="49" width="2" height="2"/>
        <rect class="i" x="44" y="71" width="2" height="2"/>
        <rect class="i" x="27" y="56" width="2" height="2"/>
        <rect class="i" x="45" y="42" width="2" height="2"/>
        <rect class="i" x="26" y="44" width="2" height="2"/>
      </g>
    </g>
  </g>
</svg>