<svg id="Search" xmlns="http://www.w3.org/2000/svg" width="35" height="35" viewBox="0 0 35 35">
  <path id="패스_2" data-name="패스 2" d="M4.375,15.313A10.831,10.831,0,0,1,15.313,4.375,10.831,10.831,0,0,1,26.25,15.313,10.831,10.831,0,0,1,15.313,26.25,10.831,10.831,0,0,1,4.375,15.313ZM31.281,34.344a2.166,2.166,0,0,0,3.063-3.062L27.563,24.5a14.977,14.977,0,0,0,3.063-9.188A15.218,15.218,0,0,0,15.313,0,15.218,15.218,0,0,0,0,15.313,15.218,15.218,0,0,0,15.313,30.625,14.977,14.977,0,0,0,24.5,27.563Z" fill="#fff"/>
</svg>
